<?xml version="1.0" encoding="utf-8"?>
<!-- Generator: Adobe Illustrator 22.0.1, SVG Export Plug-In . SVG Version: 6.00 Build 0)  -->
<svg version="1.1" id="Layer_1" xmlns="http://www.w3.org/2000/svg" xmlns:xlink="http://www.w3.org/1999/xlink" x="0px" y="0px"
	 viewBox="0 0 256 256" style="enable-background:new 0 0 256 256;" xml:space="preserve">
<g>
	<path d="M179.7,181.3l5-2.9c13.7-7.7,18.7-25.2,10.8-39.1c-0.5-1-1.2-1.9-1.9-2.9c-1.4,1.7-3.1,3.6-4.8,5
		c-12.5,12-27.8,20.4-44.8,24c2.4,5.3,6.7,9.8,11.7,12.7l5,2.9l-0.2,6c0,2.6,1,5.3,2.9,7c3.8,3.8,9.8,3.8,13.7,0
		c1.9-1.9,2.9-4.6,2.9-7.2L179.7,181.3z"/>
	<path d="M175.4,128.1c10.8-10.8,10.8-16.3-10.1-37.4S139,69.6,127.9,80.6c-17,17-26.6,47.9-13.7,61.1
		C127.2,154.9,158.4,145.1,175.4,128.1z"/>
	<path d="M114.3,66.9c1.7-1.7,3.4-3.1,5-4.6c-12.7-9.3-30.7-6.7-40,6c-0.7,1-1.4,1.9-1.9,2.9L74.5,76l-5.8-0.2c-2.6,0-5.3,1-7,2.9
		c-3.8,3.8-3.8,9.8,0,13.7c1.9,1.9,4.6,2.9,7.2,2.9l5.8-0.2l2.9,5c2.9,5.3,7.4,9.3,12.7,11.7C93.9,95,102.3,79.4,114.3,66.9z"/>
	<path d="M219.5,36.5C170.8-12.2,92-12.2,43.1,36.5c-36.9,36.9-47,93-24.9,140.5l-18,67.6c-1,5.3,2.4,10.3,7.7,11.3
		c1.2,0.2,2.4,0.2,3.6,0l67.6-18c62.6,28.8,136.6,1.7,165.4-60.9C266.5,129.5,256.4,73.4,219.5,36.5z M150,207.6
		c-4.3-4.3-7.2-9.8-8.1-15.6c-8.6-6.2-14.9-15.3-17.7-25.6c-18.2-2.2-32.6-16.5-34.8-34.8c-10.3-2.9-19.2-9.1-25.4-17.7
		c-15.6-2.4-26.4-17.3-24-32.8c1.9-12.2,11.5-22.1,24-24c1.4-1.9,2.9-3.8,4.8-5.5c18.7-18.7,49.1-18.7,67.8,0
		c0.7,0.7,1.7,1.7,2.4,2.6c16.3-1,30,12.7,40,22.8c10.1,10.1,23.7,23.7,22.8,40c1,0.7,1.7,1.4,2.6,2.4c18.7,18.7,18.7,49.1,0,67.8
		c-1.7,1.7-3.6,3.4-5.5,4.8c-2.6,15.6-17.3,26.4-33.1,23.7C159.6,214.8,154.3,212,150,207.6z"/>
</g>
</svg>
